<svg id="Group_14206" data-name="Group 14206" xmlns="http://www.w3.org/2000/svg" xmlns:xlink="http://www.w3.org/1999/xlink" width="77.641" height="32.932" viewBox="0 0 77.641 32.932">
  <defs>
    <clipPath id="clip-path">
      <rect id="Rectangle_3115" data-name="Rectangle 3115" width="77.641" height="32.932" fill="none"/>
    </clipPath>
  </defs>
  <g id="Group_6557" data-name="Group 6557" clip-path="url(#clip-path)">
    <path id="Path_3552" data-name="Path 3552" d="M303.692,69.638a3.273,3.273,0,0,0-1.3-1.46,4.363,4.363,0,0,0-2.109-.73,4.064,4.064,0,0,0-3.08.811,3.484,3.484,0,0,0-1.46,2.757,3.783,3.783,0,0,0,.811,3,3.6,3.6,0,0,0,2.595,1.379,3.991,3.991,0,0,0,2.352-.487,3.7,3.7,0,0,1-.973,1.946,2.014,2.014,0,0,1-1.784.567,1.7,1.7,0,0,1-.892-.325l-1.54,1.784a4.389,4.389,0,0,0,.892.487,4.8,4.8,0,0,0,1.54.405,4.6,4.6,0,0,0,3.487-1.054,6.327,6.327,0,0,0,1.3-1.784,12.016,12.016,0,0,0,.73-2.838,9.2,9.2,0,0,0-.567-4.461Zm-2.676,3.16a1.959,1.959,0,0,1-1.379.325,1.492,1.492,0,0,1-1.136-.651,2.378,2.378,0,0,1-.324-1.3,1.7,1.7,0,0,1,.567-1.135,1.458,1.458,0,0,1,1.3-.325,1.815,1.815,0,0,1,1.217.651,1.908,1.908,0,0,1,.405,1.3,2.011,2.011,0,0,1-.648,1.135" transform="translate(-244.298 -55.688)" fill="#323634"/>
    <path id="Path_3553" data-name="Path 3553" d="M355.485,69.638a3.275,3.275,0,0,0-1.3-1.46,4.366,4.366,0,0,0-2.109-.73,4.064,4.064,0,0,0-3.08.811,3.485,3.485,0,0,0-1.46,2.757,3.783,3.783,0,0,0,.811,3,3.6,3.6,0,0,0,2.595,1.379,3.991,3.991,0,0,0,2.352-.487,3.7,3.7,0,0,1-.973,1.946,2.014,2.014,0,0,1-1.784.568,1.7,1.7,0,0,1-.892-.325l-1.54,1.784a4.4,4.4,0,0,0,.892.487,4.8,4.8,0,0,0,1.54.405,4.6,4.6,0,0,0,3.487-1.054,6.342,6.342,0,0,0,1.3-1.784,12.023,12.023,0,0,0,.73-2.838,8.325,8.325,0,0,0-.567-4.461ZM352.809,72.8a1.957,1.957,0,0,1-1.378.325,1.492,1.492,0,0,1-1.135-.651,2.381,2.381,0,0,1-.325-1.3,1.7,1.7,0,0,1,.568-1.135,1.457,1.457,0,0,1,1.3-.325,1.814,1.814,0,0,1,1.216.652,1.908,1.908,0,0,1,.406,1.3,2.008,2.008,0,0,1-.652,1.135Z" transform="translate(-287.088 -55.689)" fill="#323634"/>
    <path id="Path_3554" data-name="Path 3554" d="M288.015,10.057l2.514-2.514S288.908,3.406,283.066,0l-2.514,2.514,2.919,2.919-.652.652a15.253,15.253,0,1,0,1.7,1.7l.652-.651Zm-3.163,7.463A11.964,11.964,0,1,1,272.931,5.437,11.965,11.965,0,0,1,284.852,17.52" transform="translate(-212.888)" fill="#85c440"/>
    <path id="Path_3555" data-name="Path 3555" d="M6.013,65.49a.213.213,0,0,1,.064.156v1.745a.22.22,0,0,1-.22.22H4.076a.081.081,0,0,0-.092.092v6.959a.22.22,0,0,1-.22.22H1.616a.22.22,0,0,1-.22-.22V67.7a.081.081,0,0,0-.092-.092H.22a.211.211,0,0,1-.156-.064A.211.211,0,0,1,0,67.391V65.646a.212.212,0,0,1,.064-.156.212.212,0,0,1,.156-.064H1.3a.081.081,0,0,0,.092-.092v-.4a3.711,3.711,0,0,1,.349-1.772,1.94,1.94,0,0,1,1.129-.9,6.407,6.407,0,0,1,2.158-.23h.7a.219.219,0,0,1,.22.22v1.487a.219.219,0,0,1-.22.22H5.123a1.305,1.305,0,0,0-.891.266,1.281,1.281,0,0,0-.248.909v.2a.081.081,0,0,0,.092.092H5.857a.213.213,0,0,1,.156.064" transform="translate(0 -51.243)" fill="#323634"/>
    <path id="Path_3556" data-name="Path 3556" d="M48.849,81.762A.212.212,0,0,1,49,81.7h2.148a.22.22,0,0,1,.22.22v9a.22.22,0,0,1-.22.22H49a.22.22,0,0,1-.22-.22v-.624c0-.037-.012-.058-.037-.064s-.049.009-.074.046a2.647,2.647,0,0,1-2.277.992,3.22,3.22,0,0,1-2.3-.844,3.09,3.09,0,0,1-.9-2.369V81.918a.219.219,0,0,1,.22-.22h2.13a.22.22,0,0,1,.22.22v5.49a1.765,1.765,0,0,0,.395,1.194,1.364,1.364,0,0,0,1.092.459,1.448,1.448,0,0,0,1.028-.376,1.632,1.632,0,0,0,.5-.982V81.918a.212.212,0,0,1,.064-.156" transform="translate(-35.693 -67.497)" fill="#323634"/>
    <path id="Path_3557" data-name="Path 3557" d="M101.256,74.839a.211.211,0,0,1-.064-.156V62.27a.22.22,0,0,1,.22-.22h2.148a.219.219,0,0,1,.22.22V74.683a.219.219,0,0,1-.22.22h-2.148a.211.211,0,0,1-.156-.064" transform="translate(-83.602 -51.264)" fill="#323634"/>
    <path id="Path_3558" data-name="Path 3558" d="M130.233,62.894a.213.213,0,0,1,.064.156v1.744a.22.22,0,0,1-.22.22H128.3a.081.081,0,0,0-.092.092v6.959a.22.22,0,0,1-.22.22h-2.148a.22.22,0,0,1-.22-.22V65.106a.081.081,0,0,0-.092-.092H124.44a.219.219,0,0,1-.22-.22V63.05a.219.219,0,0,1,.22-.22h1.083a.081.081,0,0,0,.092-.092v-.4a3.711,3.711,0,0,1,.349-1.772,1.94,1.94,0,0,1,1.129-.9,6.4,6.4,0,0,1,2.158-.23h.7a.22.22,0,0,1,.22.22V61.14a.22.22,0,0,1-.22.22h-.606a1.305,1.305,0,0,0-.891.266,1.282,1.282,0,0,0-.248.909v.2a.081.081,0,0,0,.092.092h1.781a.213.213,0,0,1,.156.064m1.928-1.524a1.509,1.509,0,1,1,1.037.413,1.407,1.407,0,0,1-1.037-.413m-.22,10.851a.211.211,0,0,1-.064-.156V63.05a.22.22,0,0,1,.22-.22h2.148a.22.22,0,0,1,.22.22v9.015a.22.22,0,0,1-.22.22H132.1a.211.211,0,0,1-.156-.064" transform="translate(-102.627 -48.647)" fill="#323634"/>
    <path id="Path_3559" data-name="Path 3559" d="M194.737,74.839a.211.211,0,0,1-.064-.156V62.27a.22.22,0,0,1,.22-.22h2.148a.219.219,0,0,1,.22.22V74.683a.219.219,0,0,1-.22.22h-2.148a.211.211,0,0,1-.156-.064" transform="translate(-160.834 -51.264)" fill="#323634"/>
    <path id="Path_3560" data-name="Path 3560" d="M220.509,74.839a.211.211,0,0,1-.064-.156V62.27a.22.22,0,0,1,.22-.22h2.148a.219.219,0,0,1,.22.22V74.683a.219.219,0,0,1-.22.22h-2.148a.211.211,0,0,1-.156-.064" transform="translate(-182.126 -51.264)" fill="#323634"/>
  </g>
</svg>
