<svg xmlns="http://www.w3.org/2000/svg" width="79.938" height="32.322" viewBox="0 0 79.938 32.322">
  <g id="Group_14418" data-name="Group 14418" transform="translate(-1 0)">
    <path id="Path_11045" data-name="Path 11045" d="M90.228,19.36a3.212,3.212,0,0,0-1.273-1.433,4.288,4.288,0,0,0-2.07-.716,3.989,3.989,0,0,0-3.024.8,3.42,3.42,0,0,0-1.433,2.706,3.712,3.712,0,0,0,.8,2.947,3.537,3.537,0,0,0,2.545,1.353,3.914,3.914,0,0,0,2.308-.478,3.63,3.63,0,0,1-.955,1.91A1.977,1.977,0,0,1,85.373,27a1.67,1.67,0,0,1-.875-.318l-1.512,1.751a4.318,4.318,0,0,0,.875.478,4.705,4.705,0,0,0,1.512.4A4.517,4.517,0,0,0,88.8,28.278a6.229,6.229,0,0,0,1.273-1.751,11.816,11.816,0,0,0,.717-2.791,9.023,9.023,0,0,0-.557-4.378Zm-2.626,3.1a1.922,1.922,0,0,1-1.353.318,1.464,1.464,0,0,1-1.115-.637,2.33,2.33,0,0,1-.318-1.273,1.668,1.668,0,0,1,.557-1.115,1.429,1.429,0,0,1,1.273-.318,1.781,1.781,0,0,1,1.194.636,1.877,1.877,0,0,1,.4,1.273,1.972,1.972,0,0,1-.636,1.115Z" transform="translate(-27.2 -5.669)" fill="#323634"/>
    <path id="Path_11046" data-name="Path 11046" d="M103.419,19.36a3.212,3.212,0,0,0-1.273-1.433,4.288,4.288,0,0,0-2.07-.716,3.989,3.989,0,0,0-3.025.8,3.42,3.42,0,0,0-1.433,2.706,3.712,3.712,0,0,0,.8,2.947,3.535,3.535,0,0,0,2.545,1.353,3.915,3.915,0,0,0,2.308-.478,3.635,3.635,0,0,1-.955,1.91A1.977,1.977,0,0,1,98.563,27a1.67,1.67,0,0,1-.875-.318l-1.512,1.751a4.318,4.318,0,0,0,.875.478,4.718,4.718,0,0,0,1.512.4,4.517,4.517,0,0,0,3.423-1.035,6.228,6.228,0,0,0,1.273-1.751,11.809,11.809,0,0,0,.717-2.786,8.171,8.171,0,0,0-.557-4.378Zm-2.627,3.1a1.922,1.922,0,0,1-1.353.318,1.465,1.465,0,0,1-1.115-.637,2.341,2.341,0,0,1-.318-1.273,1.668,1.668,0,0,1,.557-1.115,1.429,1.429,0,0,1,1.273-.318,1.78,1.78,0,0,1,1.194.636,1.877,1.877,0,0,1,.4,1.273,1.973,1.973,0,0,1-.637,1.115Z" transform="translate(-31.555 -5.669)" fill="#323634"/>
    <path id="Path_11047" data-name="Path 11047" d="M102.476,9.871,104.944,7.4s-1.593-4.06-7.323-7.4L95.154,2.468l2.866,2.866-.637.637a14.97,14.97,0,1,0,1.672,1.672l.636-.636Zm-3.1,7.323a11.741,11.741,0,1,1-11.7-11.86,11.741,11.741,0,0,1,11.7,11.86" transform="translate(-24.005 0)" fill="#85c440"/>
    <path id="Path_11048" data-name="Path 11048" d="M8.372,24.785A6.849,6.849,0,0,1,8.036,27a3.8,3.8,0,0,1-1.283,1.8,3.489,3.489,0,0,1-2.168.663A2.392,2.392,0,0,1,2.6,28.573c-.024-.036-.048-.046-.071-.036a.072.072,0,0,0-.036.072V32.4a.206.206,0,0,1-.062.151.2.2,0,0,1-.15.061H.212a.206.206,0,0,1-.151-.061A.206.206,0,0,1,0,32.4V20.43a.2.2,0,0,1,.062-.151.206.206,0,0,1,.151-.062H2.283a.212.212,0,0,1,.212.212v.584c0,.035.011.056.036.062A.076.076,0,0,0,2.6,21.05a2.439,2.439,0,0,1,2.053-.974,3.391,3.391,0,0,1,2.115.682,3.747,3.747,0,0,1,1.283,1.9,6.4,6.4,0,0,1,.318,2.125m-2.584-.036a3.593,3.593,0,0,0-.372-1.77,1.378,1.378,0,0,0-1.31-.761,1.308,1.308,0,0,0-1.221.761,3.566,3.566,0,0,0-.372,1.788,3.616,3.616,0,0,0,.39,1.841,1.309,1.309,0,0,0,1.2.708,1.394,1.394,0,0,0,1.239-.69,3.448,3.448,0,0,0,.443-1.877" transform="translate(1 -6.629)" fill="#323634"/>
    <path id="Path_11049" data-name="Path 11049" d="M20.242,20.35a.2.2,0,0,1,.151-.062h2.07a.212.212,0,0,1,.213.212v8.674a.213.213,0,0,1-.213.212h-2.07a.212.212,0,0,1-.212-.212v-.6c0-.035-.012-.056-.036-.062s-.047.009-.07.044a2.553,2.553,0,0,1-2.2.956,3.1,3.1,0,0,1-2.212-.814,2.981,2.981,0,0,1-.867-2.283V20.5a.21.21,0,0,1,.212-.212h2.053a.2.2,0,0,1,.151.062.208.208,0,0,1,.062.151v5.293a1.7,1.7,0,0,0,.38,1.151,1.315,1.315,0,0,0,1.053.442,1.4,1.4,0,0,0,.991-.363,1.572,1.572,0,0,0,.478-.946V20.5a.2.2,0,0,1,.062-.151" transform="translate(-3.886 -6.699)" fill="#323634"/>
    <path id="Path_11050" data-name="Path 11050" d="M36.334,20.943A3.181,3.181,0,0,1,37.2,23.3V29.1a.212.212,0,0,1-.212.212H34.918a.2.2,0,0,1-.15-.062.2.2,0,0,1-.062-.15V23.811a1.657,1.657,0,0,0-.4-1.151,1.474,1.474,0,0,0-2.107,0,1.655,1.655,0,0,0-.4,1.151V29.1a.212.212,0,0,1-.212.212H29.519a.2.2,0,0,1-.15-.062.2.2,0,0,1-.062-.15V20.43a.2.2,0,0,1,.062-.15.2.2,0,0,1,.15-.062H31.59a.2.2,0,0,1,.151.062.207.207,0,0,1,.062.15v.62a.07.07,0,0,0,.035.071.035.035,0,0,0,.053-.017,2.472,2.472,0,0,1,2.16-1.027,3.088,3.088,0,0,1,2.283.867" transform="translate(-8.676 -6.629)" fill="#323634"/>
    <path id="Path_11051" data-name="Path 11051" d="M48.677,21.039a.2.2,0,0,1-.151.062h-1.7a.079.079,0,0,0-.088.089v3.753a1.325,1.325,0,0,0,.239.867.954.954,0,0,0,.77.283h.584a.212.212,0,0,1,.213.213v1.681a.218.218,0,0,1-.213.23q-.743.035-1.062.036a3.977,3.977,0,0,1-2.2-.487,2.085,2.085,0,0,1-.744-1.832V21.19a.079.079,0,0,0-.088-.089H43.234a.21.21,0,0,1-.212-.212V19.313a.212.212,0,0,1,.212-.212h1.009a.078.078,0,0,0,.088-.088V16.906a.212.212,0,0,1,.212-.213h1.983a.212.212,0,0,1,.212.213v2.106a.078.078,0,0,0,.088.088h1.7a.205.205,0,0,1,.151.062.2.2,0,0,1,.062.15v1.575a.2.2,0,0,1-.062.151" transform="translate(-13.205 -5.512)" fill="#323634"/>
    <path id="Path_11052" data-name="Path 11052" d="M54.974,28.679a3.892,3.892,0,0,1-1.452-2.123,6.3,6.3,0,0,1-.248-1.807,6.564,6.564,0,0,1,.248-1.876,3.8,3.8,0,0,1,1.469-2.053,4.326,4.326,0,0,1,2.549-.744,4.145,4.145,0,0,1,2.478.734,3.917,3.917,0,0,1,1.452,2.045,6.06,6.06,0,0,1,.283,1.859,6.227,6.227,0,0,1-.248,1.788,3.96,3.96,0,0,1-1.442,2.168,4.122,4.122,0,0,1-2.54.788,4.188,4.188,0,0,1-2.549-.779m3.54-1.717a1.97,1.97,0,0,0,.584-.973,5.111,5.111,0,0,0,.142-1.24,4.79,4.79,0,0,0-.142-1.257,1.967,1.967,0,0,0-.6-.938,1.642,1.642,0,0,0-1.991,0,1.884,1.884,0,0,0-.575.938,4.219,4.219,0,0,0-.141,1.257,4.808,4.808,0,0,0,.124,1.24,1.939,1.939,0,0,0,.593.973,1.513,1.513,0,0,0,1.018.354,1.455,1.455,0,0,0,.991-.354" transform="translate(-16.59 -6.629)" fill="#323634"/>
  </g>
</svg>
