<svg id="Group_6563" data-name="Group 6563" xmlns="http://www.w3.org/2000/svg" xmlns:xlink="http://www.w3.org/1999/xlink" width="72.877" height="32.478" viewBox="0 0 72.877 32.478">
  <defs>
    <clipPath id="clip-path">
      <rect id="Rectangle_3116" data-name="Rectangle 3116" width="72.877" height="32.478" fill="rgba(0,0,0,0)"/>
    </clipPath>
  </defs>
  <g id="Group_6559" data-name="Group 6559" clip-path="url(#clip-path)">
    <path id="Path_3561" data-name="Path 3561" d="M282.037,69.607a3.228,3.228,0,0,0-1.28-1.44,4.3,4.3,0,0,0-2.079-.72,4.008,4.008,0,0,0-3.038.8,3.436,3.436,0,0,0-1.44,2.719,3.731,3.731,0,0,0,.8,2.959,3.554,3.554,0,0,0,2.559,1.36,3.937,3.937,0,0,0,2.32-.48,3.647,3.647,0,0,1-.96,1.919,1.986,1.986,0,0,1-1.759.56,1.676,1.676,0,0,1-.88-.32l-1.519,1.759a4.331,4.331,0,0,0,.88.48,4.732,4.732,0,0,0,1.519.4,4.538,4.538,0,0,0,3.439-1.04,6.247,6.247,0,0,0,1.28-1.759,11.851,11.851,0,0,0,.72-2.8,9.069,9.069,0,0,0-.56-4.4ZM279.4,72.724a1.932,1.932,0,0,1-1.36.32,1.471,1.471,0,0,1-1.12-.643,2.345,2.345,0,0,1-.32-1.28,1.676,1.676,0,0,1,.56-1.12,1.437,1.437,0,0,1,1.28-.32,1.79,1.79,0,0,1,1.2.643,1.882,1.882,0,0,1,.4,1.28,1.982,1.982,0,0,1-.639,1.12" transform="translate(-227.156 -55.85)" fill="#323634"/>
    <path id="Path_3562" data-name="Path 3562" d="M333.829,69.607a3.23,3.23,0,0,0-1.28-1.44,4.306,4.306,0,0,0-2.079-.72,4.008,4.008,0,0,0-3.038.8,3.437,3.437,0,0,0-1.44,2.719,3.731,3.731,0,0,0,.8,2.959,3.553,3.553,0,0,0,2.559,1.36,3.936,3.936,0,0,0,2.32-.48,3.648,3.648,0,0,1-.96,1.919,1.986,1.986,0,0,1-1.759.56,1.677,1.677,0,0,1-.88-.32l-1.519,1.759a4.337,4.337,0,0,0,.88.48,4.731,4.731,0,0,0,1.519.4,4.54,4.54,0,0,0,3.439-1.04,6.257,6.257,0,0,0,1.28-1.759,11.856,11.856,0,0,0,.72-2.8,8.21,8.21,0,0,0-.56-4.4Zm-2.639,3.119a1.931,1.931,0,0,1-1.359.32,1.472,1.472,0,0,1-1.12-.643,2.348,2.348,0,0,1-.32-1.28,1.677,1.677,0,0,1,.56-1.12,1.436,1.436,0,0,1,1.28-.32,1.789,1.789,0,0,1,1.2.643,1.881,1.881,0,0,1,.4,1.28,1.981,1.981,0,0,1-.643,1.12Z" transform="translate(-270.069 -55.85)" fill="#323634"/>
    <path id="Path_3563" data-name="Path 3563" d="M266.052,9.918l2.48-2.48s-1.6-4.079-7.36-7.438l-2.48,2.48,2.879,2.879L260.928,6a15.042,15.042,0,1,0,1.679,1.679l.643-.643Zm-3.119,7.36A11.8,11.8,0,1,1,251.176,5.362a11.8,11.8,0,0,1,11.757,11.916" transform="translate(-195.654)" fill="#85c440"/>
    <path id="Path_3564" data-name="Path 3564" d="M1.82,89.726A3.95,3.95,0,0,1,.308,87.734,6.648,6.648,0,0,1,0,85.6a6.419,6.419,0,0,1,.308-2.1,3.758,3.758,0,0,1,1.5-1.938,4.459,4.459,0,0,1,2.517-.706,4.508,4.508,0,0,1,2.544.724A3.475,3.475,0,0,1,8.33,83.406a2.3,2.3,0,0,1,.145.652v.036a.193.193,0,0,1-.181.2L6.211,84.6H6.175a.217.217,0,0,1-.217-.181l-.054-.29a1.38,1.38,0,0,0-.561-.779,1.739,1.739,0,0,0-1.032-.308,1.618,1.618,0,0,0-.978.29,1.537,1.537,0,0,0-.561.8,4.446,4.446,0,0,0-.2,1.485A4.858,4.858,0,0,0,2.752,87.1a1.611,1.611,0,0,0,.571.851,1.587,1.587,0,0,0,.987.308,1.676,1.676,0,0,0,.987-.3,1.529,1.529,0,0,0,.589-.824.256.256,0,0,0,.018-.109.074.074,0,0,0,.018-.054q.018-.217.254-.181l2.083.326a.193.193,0,0,1,.181.2,2.552,2.552,0,0,1-.109.543,3.376,3.376,0,0,1-1.476,1.9,4.648,4.648,0,0,1-2.526.688,4.334,4.334,0,0,1-2.508-.724" transform="translate(0 -66.993)" fill="#323634"/>
    <path id="Path_3565" data-name="Path 3565" d="M61.545,81.26a3.466,3.466,0,0,1,1.44,1.114A2.606,2.606,0,0,1,63.5,83.95v6.139a.216.216,0,0,1-.217.217H61.164a.217.217,0,0,1-.217-.217v-.6a.073.073,0,0,0-.036-.073c-.025-.012-.049,0-.073.036a2.88,2.88,0,0,1-2.445,1,3.568,3.568,0,0,1-2.282-.688,2.431,2.431,0,0,1-.869-2.028,2.6,2.6,0,0,1,.978-2.164,4.421,4.421,0,0,1,2.789-.77h1.847a.08.08,0,0,0,.09-.091v-.4a1.208,1.208,0,0,0-.362-.933,1.552,1.552,0,0,0-1.087-.335,1.958,1.958,0,0,0-.933.2.931.931,0,0,0-.48.561.207.207,0,0,1-.235.181L55.66,83.7q-.218-.036-.2-.163a2.41,2.41,0,0,1,.607-1.376,3.536,3.536,0,0,1,1.412-.96,5.351,5.351,0,0,1,1.965-.344,5.153,5.153,0,0,1,2.1.407M60.4,88.132a1.289,1.289,0,0,0,.543-1.068v-.652a.08.08,0,0,0-.09-.091h-1.3a2.284,2.284,0,0,0-1.277.308.986.986,0,0,0-.462.869.939.939,0,0,0,.344.77,1.415,1.415,0,0,0,.923.281,2.107,2.107,0,0,0,1.322-.417" transform="translate(-45.773 -66.993)" fill="#323634"/>
    <path id="Path_3566" data-name="Path 3566" d="M113.973,90.175a3.224,3.224,0,0,1-1.4-.96,2.155,2.155,0,0,1-.5-1.394V87.64a.216.216,0,0,1,.217-.217h2.01a.216.216,0,0,1,.217.217v.018a.8.8,0,0,0,.444.679,2.044,2.044,0,0,0,1.114.281,1.818,1.818,0,0,0,1-.244.711.711,0,0,0,.38-.607.522.522,0,0,0-.326-.489,5.545,5.545,0,0,0-1.069-.344,10.739,10.739,0,0,1-1.34-.416,5.749,5.749,0,0,1-1.847-.978,2.055,2.055,0,0,1-.688-1.666,2.528,2.528,0,0,1,1.041-2.128,4.462,4.462,0,0,1,2.761-.788,5.138,5.138,0,0,1,2.028.371,3.119,3.119,0,0,1,1.349,1.041,2.549,2.549,0,0,1,.48,1.521.217.217,0,0,1-.217.217h-1.938a.216.216,0,0,1-.217-.217.792.792,0,0,0-.407-.67,1.913,1.913,0,0,0-1.077-.272,1.955,1.955,0,0,0-.978.217.664.664,0,0,0-.38.6.579.579,0,0,0,.371.543,6.313,6.313,0,0,0,1.24.38q.2.054.453.118t.543.154a5.89,5.89,0,0,1,2.028.978A2.1,2.1,0,0,1,120,87.676a2.42,2.42,0,0,1-1.059,2.091,4.84,4.84,0,0,1-2.852.752,5.955,5.955,0,0,1-2.119-.344" transform="translate(-92.86 -67.079)" fill="#323634"/>
    <path id="Path_3567" data-name="Path 3567" d="M174.083,66.161a3.255,3.255,0,0,1,.887,2.408v5.939a.216.216,0,0,1-.217.217h-2.119a.217.217,0,0,1-.217-.217V69.094a1.693,1.693,0,0,0-.407-1.177,1.509,1.509,0,0,0-2.155,0,1.693,1.693,0,0,0-.407,1.177v5.414a.217.217,0,0,1-.217.217h-2.119a.217.217,0,0,1-.217-.217V62.267a.217.217,0,0,1,.217-.217h2.119a.217.217,0,0,1,.217.217v4a.072.072,0,0,0,.036.072.036.036,0,0,0,.054-.018,2.529,2.529,0,0,1,2.209-1.05,3.159,3.159,0,0,1,2.336.887" transform="translate(-138.284 -51.413)" fill="#323634"/>
  </g>
</svg>
