<svg xmlns="http://www.w3.org/2000/svg" width="83.937" height="31.582" viewBox="0 0 83.937 31.582">
  <g id="Group_10246" data-name="Group 10246" transform="translate(-11.31)">
    <path id="Fill-12" d="M142.636,117.322a3.117,3.117,0,0,0-1.235-1.39,4.157,4.157,0,0,0-2.008-.695,3.869,3.869,0,0,0-2.934.772,3.318,3.318,0,0,0-1.39,2.625,3.6,3.6,0,0,0,.772,2.857,3.431,3.431,0,0,0,2.471,1.313,3.8,3.8,0,0,0,2.239-.463,3.522,3.522,0,0,1-.926,1.853,1.918,1.918,0,0,1-1.7.54,1.618,1.618,0,0,1-.849-.309l-1.467,1.7a4.176,4.176,0,0,0,.849.463,4.567,4.567,0,0,0,1.467.386,4.382,4.382,0,0,0,3.32-1,6.033,6.033,0,0,0,1.235-1.7,11.45,11.45,0,0,0,.695-2.7,8.755,8.755,0,0,0-.54-4.247Zm-2.548,3.012a1.866,1.866,0,0,1-1.313.309,1.42,1.42,0,0,1-1.081-.618,2.264,2.264,0,0,1-.309-1.235,1.617,1.617,0,0,1,.54-1.081,1.387,1.387,0,0,1,1.235-.309,1.728,1.728,0,0,1,1.158.618,1.817,1.817,0,0,1,.386,1.235,1.913,1.913,0,0,1-.618,1.081Z" transform="translate(-64.764 -104.04)" fill="#323634"/>
    <path id="Fill-13" d="M168.216,117.322a3.117,3.117,0,0,0-1.235-1.39,4.157,4.157,0,0,0-2.008-.695,3.87,3.87,0,0,0-2.934.772,3.318,3.318,0,0,0-1.39,2.625,3.6,3.6,0,0,0,.772,2.857,3.43,3.43,0,0,0,2.471,1.313,3.8,3.8,0,0,0,2.239-.463,3.523,3.523,0,0,1-.927,1.853,1.917,1.917,0,0,1-1.7.54,1.618,1.618,0,0,1-.849-.309l-1.467,1.7a4.2,4.2,0,0,0,.849.463,4.568,4.568,0,0,0,1.467.386,4.382,4.382,0,0,0,3.32-1,6.039,6.039,0,0,0,1.235-1.7,11.449,11.449,0,0,0,.695-2.7,7.924,7.924,0,0,0-.54-4.247Zm-2.548,3.012a1.864,1.864,0,0,1-1.312.309,1.421,1.421,0,0,1-1.081-.618,2.267,2.267,0,0,1-.309-1.235,1.619,1.619,0,0,1,.541-1.081,1.387,1.387,0,0,1,1.235-.309,1.727,1.727,0,0,1,1.158.618,1.817,1.817,0,0,1,.386,1.235,1.913,1.913,0,0,1-.618,1.081Z" transform="translate(-81.772 -104.04)" fill="#323634"/>
    <path id="Fill-14" d="M145.13,91.475l2.394-2.394s-1.544-3.938-7.1-7.181l-2.394,2.394,2.78,2.78-.618.618A14.514,14.514,0,0,0,116.251,98.81a14.517,14.517,0,1,0,25.559-9.5l.618-.618Zm-3.012,7.1a11.39,11.39,0,1,1-11.351-11.505,11.468,11.468,0,0,1,11.351,11.505Z" transform="translate(-52.277 -81.9)" fill="#85c440"/>
    <path id="Path_7594" data-name="Path 7594" d="M-34.736-3.844a7.343,7.343,0,0,1,.068,1.451.2.2,0,0,1-.222.2h-5.274q-.1,0-.068.085a3.056,3.056,0,0,0,.188.683,1.79,1.79,0,0,0,1.809.956,2.06,2.06,0,0,0,1.724-.888.19.19,0,0,1,.154-.1.187.187,0,0,1,.119.068L-35.01-.174a.236.236,0,0,1,.085.154.352.352,0,0,1-.068.137A3.722,3.722,0,0,1-36.443,1.2a4.848,4.848,0,0,1-1.946.384A4.432,4.432,0,0,1-40.872.918a3.7,3.7,0,0,1-1.459-1.86,5.852,5.852,0,0,1-.358-2.236,4.913,4.913,0,0,1,.256-1.656A3.752,3.752,0,0,1-41.06-6.762a3.842,3.842,0,0,1,2.33-.717,3.793,3.793,0,0,1,2.739.99A4.331,4.331,0,0,1-34.736-3.844ZM-38.713-5.4A1.368,1.368,0,0,0-40.13-4.39a4.029,4.029,0,0,0-.119.546.075.075,0,0,0,.085.085h2.953q.1,0,.068-.085-.085-.495-.085-.478a1.474,1.474,0,0,0-.538-.794A1.558,1.558,0,0,0-38.713-5.4Zm10.1-2.065a2.977,2.977,0,0,1,2.2.836,3.067,3.067,0,0,1,.836,2.27v5.6a.2.2,0,0,1-.06.145.2.2,0,0,1-.145.06h-2a.2.2,0,0,1-.145-.06.2.2,0,0,1-.06-.145v-5.1a1.6,1.6,0,0,0-.384-1.109A1.3,1.3,0,0,0-29.377-5.4a1.3,1.3,0,0,0-1.016.427,1.6,1.6,0,0,0-.384,1.109v5.1a.2.2,0,0,1-.06.145.2.2,0,0,1-.145.06h-2a.2.2,0,0,1-.145-.06.2.2,0,0,1-.06-.145V-7.121a.2.2,0,0,1,.06-.145.2.2,0,0,1,.145-.06h2a.2.2,0,0,1,.145.06.2.2,0,0,1,.06.145v.6a.069.069,0,0,0,.034.068.034.034,0,0,0,.051-.017A2.384,2.384,0,0,1-28.609-7.462Zm6.827,8.909A.214.214,0,0,1-22,1.277L-24.735-7.1a.19.19,0,0,1-.017-.085q0-.154.188-.154h2.2a.225.225,0,0,1,.239.171L-20.724-2q.017.051.051.051T-20.621-2l1.4-5.172a.225.225,0,0,1,.239-.171l2.2.034a.191.191,0,0,1,.154.06.187.187,0,0,1,.017.179l-2.714,8.346a.214.214,0,0,1-.222.171Zm6.571,0a.2.2,0,0,1-.145-.06.2.2,0,0,1-.06-.145V-7.121a.2.2,0,0,1,.06-.145.2.2,0,0,1,.145-.06h2a.2.2,0,0,1,.145.06.2.2,0,0,1,.06.145V1.243a.2.2,0,0,1-.06.145.2.2,0,0,1-.145.06Zm.051-9.831q-.119,0-.154-.068a.188.188,0,0,1,.017-.171l.9-1.724a.255.255,0,0,1,.256-.154h1.724a.169.169,0,0,1,.162.077.166.166,0,0,1-.026.179L-13.487-8.52a.267.267,0,0,1-.239.137Zm7.732,9.968A4.042,4.042,0,0,1-9.886.833a3.752,3.752,0,0,1-1.4-2.048,6.074,6.074,0,0,1-.239-1.741,6.333,6.333,0,0,1,.239-1.809,3.667,3.667,0,0,1,1.417-1.98,4.177,4.177,0,0,1,2.458-.717,4,4,0,0,1,2.389.708,3.777,3.777,0,0,1,1.4,1.971A5.844,5.844,0,0,1-3.349-2.99a6.012,6.012,0,0,1-.239,1.724A3.816,3.816,0,0,1-4.979.824,3.973,3.973,0,0,1-7.428,1.584Zm0-2.065a1.406,1.406,0,0,0,.956-.341,1.9,1.9,0,0,0,.563-.939,4.921,4.921,0,0,0,.137-1.195,4.62,4.62,0,0,0-.137-1.212,1.894,1.894,0,0,0-.58-.9A1.451,1.451,0,0,0-7.445-5.4a1.443,1.443,0,0,0-.964.324,1.818,1.818,0,0,0-.555.9A4.065,4.065,0,0,0-9.1-2.956a4.648,4.648,0,0,0,.119,1.195,1.868,1.868,0,0,0,.572.939A1.462,1.462,0,0,0-7.428-.481ZM1.7,1.567a5.61,5.61,0,0,1-2-.324,3.044,3.044,0,0,1-1.323-.9A2.034,2.034,0,0,1-2.086-.976v-.171a.2.2,0,0,1,.06-.145.2.2,0,0,1,.145-.06H.013a.2.2,0,0,1,.145.06.2.2,0,0,1,.06.145v.017a.758.758,0,0,0,.418.64,1.929,1.929,0,0,0,1.05.265,1.712,1.712,0,0,0,.939-.23.67.67,0,0,0,.358-.572.492.492,0,0,0-.307-.461,5.218,5.218,0,0,0-1.007-.324A10.138,10.138,0,0,1,.406-2.205a5.423,5.423,0,0,1-1.741-.922A1.938,1.938,0,0,1-1.984-4.7,2.384,2.384,0,0,1-1-6.7a4.206,4.206,0,0,1,2.6-.742,4.837,4.837,0,0,1,1.912.35,2.937,2.937,0,0,1,1.272.981A2.4,2.4,0,0,1,5.236-4.68a.2.2,0,0,1-.06.145.2.2,0,0,1-.145.06H3.205a.2.2,0,0,1-.145-.06A.2.2,0,0,1,3-4.68a.746.746,0,0,0-.384-.632A1.8,1.8,0,0,0,1.6-5.567a1.842,1.842,0,0,0-.922.2A.626.626,0,0,0,.321-4.8a.547.547,0,0,0,.35.512,5.97,5.97,0,0,0,1.169.358q.188.051.427.111t.512.145a5.544,5.544,0,0,1,1.912.922,1.98,1.98,0,0,1,.7,1.638,2.282,2.282,0,0,1-1,1.971A4.562,4.562,0,0,1,1.7,1.567Z" transform="translate(54 20.575)" fill="#323634"/>
  </g>
</svg>
