<svg xmlns="http://www.w3.org/2000/svg" width="79.755" height="32.739" viewBox="0 0 79.755 32.739">
  <g id="Group_14207" data-name="Group 14207" transform="translate(-1083.685 -327.121)">
    <path id="Fill-12" d="M142.915,117.4a3.231,3.231,0,0,0-1.281-1.441,4.309,4.309,0,0,0-2.081-.72,4.011,4.011,0,0,0-3.042.8,3.44,3.44,0,0,0-1.441,2.722,3.735,3.735,0,0,0,.8,2.962,3.557,3.557,0,0,0,2.561,1.361,3.94,3.94,0,0,0,2.321-.48,3.651,3.651,0,0,1-.96,1.921,1.989,1.989,0,0,1-1.761.56,1.677,1.677,0,0,1-.881-.32l-1.521,1.761a4.328,4.328,0,0,0,.88.48,4.735,4.735,0,0,0,1.521.4,4.543,4.543,0,0,0,3.442-1.041,6.254,6.254,0,0,0,1.281-1.761,11.872,11.872,0,0,0,.72-2.8,9.076,9.076,0,0,0-.56-4.4Zm-2.641,3.122a1.934,1.934,0,0,1-1.361.32,1.472,1.472,0,0,1-1.121-.64,2.347,2.347,0,0,1-.32-1.281,1.677,1.677,0,0,1,.56-1.121,1.438,1.438,0,0,1,1.281-.32,1.791,1.791,0,0,1,1.2.64,1.883,1.883,0,0,1,.4,1.281,1.983,1.983,0,0,1-.64,1.121Z" transform="translate(1002.514 223.489)" fill="#323634"/>
    <path id="Fill-13" d="M168.5,117.4a3.231,3.231,0,0,0-1.281-1.441,4.308,4.308,0,0,0-2.081-.72,4.012,4.012,0,0,0-3.042.8,3.439,3.439,0,0,0-1.441,2.722,3.734,3.734,0,0,0,.8,2.962,3.556,3.556,0,0,0,2.561,1.361,3.941,3.941,0,0,0,2.321-.48,3.652,3.652,0,0,1-.961,1.921,1.988,1.988,0,0,1-1.761.56,1.678,1.678,0,0,1-.881-.32l-1.521,1.761a4.349,4.349,0,0,0,.881.48,4.736,4.736,0,0,0,1.521.4,4.542,4.542,0,0,0,3.442-1.041,6.26,6.26,0,0,0,1.281-1.761,11.869,11.869,0,0,0,.72-2.8,8.215,8.215,0,0,0-.56-4.4Zm-2.642,3.122a1.932,1.932,0,0,1-1.361.32,1.473,1.473,0,0,1-1.121-.64,2.35,2.35,0,0,1-.32-1.281,1.678,1.678,0,0,1,.561-1.121,1.438,1.438,0,0,1,1.281-.32,1.791,1.791,0,0,1,1.2.64,1.884,1.884,0,0,1,.4,1.281,1.984,1.984,0,0,1-.641,1.121Z" transform="translate(985.819 223.489)" fill="#323634"/>
    <path id="Fill-14" d="M146.189,91.826l2.482-2.482s-1.6-4.082-7.364-7.445l-2.482,2.482,2.882,2.882-.641.641A15.046,15.046,0,0,0,116.251,99.43a15.049,15.049,0,1,0,26.5-9.846l.64-.64Zm-3.122,7.364A11.807,11.807,0,1,1,131.3,87.263,11.889,11.889,0,0,1,143.066,99.19Z" transform="translate(1014.77 245.221)" fill="#85c440"/>
    <path id="Path_10573" data-name="Path 10573" d="M-83.942-7.23a.216.216,0,0,1-.065.158.216.216,0,0,1-.158.065h-1.79a.082.082,0,0,0-.093.093v3.952a1.394,1.394,0,0,0,.252.914,1,1,0,0,0,.811.3h.615a.216.216,0,0,1,.158.065.216.216,0,0,1,.065.158V.246a.23.23,0,0,1-.224.242q-.783.037-1.119.037A4.191,4.191,0,0,1-87.8.013a2.2,2.2,0,0,1-.783-1.93v-5a.082.082,0,0,0-.093-.093H-89.74a.216.216,0,0,1-.158-.065.216.216,0,0,1-.065-.158V-8.889a.216.216,0,0,1,.065-.158.216.216,0,0,1,.158-.065h1.063a.082.082,0,0,0,.093-.093v-2.219a.216.216,0,0,1,.065-.158.216.216,0,0,1,.158-.065h2.088a.216.216,0,0,1,.158.065.216.216,0,0,1,.065.158v2.219a.082.082,0,0,0,.093.093h1.79a.216.216,0,0,1,.158.065.216.216,0,0,1,.065.158Zm5.407-2.032a5.307,5.307,0,0,1,2.163.419A3.569,3.569,0,0,1-74.891-7.7a2.684,2.684,0,0,1,.531,1.622V.246A.216.216,0,0,1-74.424.4a.216.216,0,0,1-.158.065h-2.181A.216.216,0,0,1-76.923.4a.216.216,0,0,1-.065-.158V-.369a.075.075,0,0,0-.037-.075q-.037-.019-.075.037A2.966,2.966,0,0,1-79.617.619a3.674,3.674,0,0,1-2.349-.708,2.5,2.5,0,0,1-.895-2.088,2.673,2.673,0,0,1,1.007-2.228A4.55,4.55,0,0,1-78.983-5.2h1.9a.082.082,0,0,0,.093-.093V-5.7a1.243,1.243,0,0,0-.373-.96,1.6,1.6,0,0,0-1.119-.345,2.015,2.015,0,0,0-.96.205.957.957,0,0,0-.494.578.214.214,0,0,1-.242.186l-2.256-.3q-.224-.037-.205-.168a2.482,2.482,0,0,1,.625-1.417,3.64,3.64,0,0,1,1.454-.988A5.505,5.505,0,0,1-78.535-9.262Zm-.373,7.924a2.171,2.171,0,0,0,1.361-.429,1.327,1.327,0,0,0,.559-1.1v-.671a.082.082,0,0,0-.093-.093h-1.342a2.349,2.349,0,0,0-1.314.317,1.015,1.015,0,0,0-.475.895.967.967,0,0,0,.354.792A1.459,1.459,0,0,0-78.908-1.339Zm7.812-8.856a1.429,1.429,0,0,1-1.053-.419,1.429,1.429,0,0,1-.419-1.053,1.438,1.438,0,0,1,.41-1.063,1.438,1.438,0,0,1,1.063-.41,1.438,1.438,0,0,1,1.063.41,1.438,1.438,0,0,1,.41,1.063,1.429,1.429,0,0,1-.419,1.053A1.429,1.429,0,0,1-71.1-10.194ZM-72.215.47A.216.216,0,0,1-72.374.4a.216.216,0,0,1-.065-.158V-8.908a.216.216,0,0,1,.065-.158.216.216,0,0,1,.158-.065h2.181a.216.216,0,0,1,.158.065.216.216,0,0,1,.065.158V.246A.216.216,0,0,1-69.875.4a.216.216,0,0,1-.158.065Zm4.68,0A.216.216,0,0,1-67.694.4a.216.216,0,0,1-.065-.158v-12.6a.216.216,0,0,1,.065-.158.216.216,0,0,1,.158-.065h2.181a.216.216,0,0,1,.158.065.216.216,0,0,1,.065.158V.246A.216.216,0,0,1-65.2.4a.216.216,0,0,1-.158.065Zm8.557.149A4.415,4.415,0,0,1-61.663-.2a4.1,4.1,0,0,1-1.529-2.237,6.635,6.635,0,0,1-.261-1.9,6.918,6.918,0,0,1,.261-1.976,4.006,4.006,0,0,1,1.547-2.163,4.562,4.562,0,0,1,2.685-.783,4.367,4.367,0,0,1,2.61.774,4.125,4.125,0,0,1,1.529,2.153,6.384,6.384,0,0,1,.3,1.958,6.567,6.567,0,0,1-.261,1.883A4.168,4.168,0,0,1-56.3-.211,4.34,4.34,0,0,1-58.978.619Zm0-2.256a1.536,1.536,0,0,0,1.044-.373,2.073,2.073,0,0,0,.615-1.025A5.375,5.375,0,0,0-57.17-4.34a5.046,5.046,0,0,0-.149-1.324,2.069,2.069,0,0,0-.634-.988A1.586,1.586,0,0,0-59-7.006a1.576,1.576,0,0,0-1.053.354,1.986,1.986,0,0,0-.606.988,4.441,4.441,0,0,0-.149,1.324,5.078,5.078,0,0,0,.131,1.305A2.041,2.041,0,0,0-60.05-2.01,1.6,1.6,0,0,0-58.978-1.637Zm10.925-7.607a1.894,1.894,0,0,1,1.063.261.231.231,0,0,1,.112.28l-.392,2.125q-.019.224-.261.131a2.066,2.066,0,0,0-.653-.093,3.082,3.082,0,0,0-.41.037,1.832,1.832,0,0,0-1.137.494A1.524,1.524,0,0,0-50.2-4.844V.246A.216.216,0,0,1-50.262.4a.216.216,0,0,1-.158.065H-52.6A.216.216,0,0,1-52.76.4a.216.216,0,0,1-.065-.158V-8.889a.216.216,0,0,1,.065-.158.216.216,0,0,1,.158-.065h2.181a.216.216,0,0,1,.158.065.216.216,0,0,1,.065.158v.708a.075.075,0,0,0,.037.075.037.037,0,0,0,.056-.019A2.368,2.368,0,0,1-48.053-9.243Z" transform="translate(1173.649 350.311)" fill="#323634"/>
  </g>
</svg>
